<!--<svg id="Layer_1" data-name="Layer 1" xmlns="http://www.w3.org/2000/svg" viewBox="0 0 211.38 31.9"><path d="M16.6,1.46h0l12.59,0a1.24,1.24,0,0,1,1.24,1.23V15.26a1.21,1.21,0,0,1-1.22,1.21,1.16,1.16,0,0,1-.84-.36l-4.24-4.24L20,16l9.57,9.55a2.87,2.87,0,0,1,.83,2v.06a2.83,2.83,0,0,1-2.83,2.84h-.12a2.87,2.87,0,0,1-2-.83l-9.53-9.54L6.42,29.59a2.91,2.91,0,0,1-2.06.85h0a2.9,2.9,0,0,1-2.9-2.9V4.4A2.89,2.89,0,0,1,6.4,2.35l9.54,9.53,4.11-4.11L15.77,3.48a1.18,1.18,0,0,1,.83-2M7.25,20.57,11.84,16l-4.59-4.6v9.19M16.61,0h0a2.65,2.65,0,0,0-1.87,4.52L18,7.77l-2,2.05-8.5-8.5A4.32,4.32,0,0,0,4.36,0,4.36,4.36,0,0,0,0,4.4V27.54a4.36,4.36,0,0,0,7.45,3.08l8.49-8.48,8.5,8.5a4.27,4.27,0,0,0,3,1.26h.12a4.31,4.31,0,0,0,4.3-4.3v-.06a4.24,4.24,0,0,0-1.27-3L22.1,16l2-2.05,3.21,3.22a2.64,2.64,0,0,0,1.87.78,2.68,2.68,0,0,0,2.68-2.67V2.73A2.7,2.7,0,0,0,29.21,0ZM8.71,17V14.91L9.78,16Z"/><path d="M68.2,19.28V10.17h4.17V7.9H68.2V3.84h-.59A1.58,1.58,0,0,0,66,5.2h0V19.79q0,4.46,4,4.46h1.56V22H70.14c-1.3,0-1.94-1.17-1.94-2.72"/><path d="M143.81,3.85h-.61a1.61,1.61,0,0,0-1.68,1.37h0V19.79c0,3,1.38,4.46,4.16,4.46h1.6V22h-1.47c-1.34,0-2-1.17-2-2.72v-9.1h4.28V7.91h-4.28V3.85Z"/><path d="M101.8,7.86h-3c-2.8,0-4.19,1.5-4.19,4.5V24.25h2.26V12.46c0-1.55.67-2.33,2-2.33h2.92V7.86Z"/><path d="M116.7,5.32V7.93h-4.28a8.28,8.28,0,0,0-8,8.15,8.29,8.29,0,0,0,8,8.17h6.63V3.85h-.6a1.63,1.63,0,0,0-1.75,1.47m0,16.66h-3.89a6.22,6.22,0,0,1-6.06-5.9,6.18,6.18,0,0,1,6.06-5.84h3.89Z"/><path d="M158.5,7.78c-4.1,0-7.84,3.81-7.84,8.23a8.25,8.25,0,0,0,7.84,8.24H165V7.78ZM162.7,22h-3.81A6.19,6.19,0,0,1,153,16a6.14,6.14,0,0,1,5.94-5.9h3.81Z"/><path d="M45.6,7.78c-4.09,0-7.83,3.81-7.83,8.23a8.24,8.24,0,0,0,7.83,8.24h6.5V7.78ZM49.8,22H46A6.19,6.19,0,0,1,40.06,16,6.14,6.14,0,0,1,46,10.11H49.8Z"/><path d="M82.77,7.9A8,8,0,0,0,75,16.08a8,8,0,0,0,7.73,8.17h5.74V22H82.72a5.74,5.74,0,0,1-5.54-5.15H90.49c0-.26,0-.51,0-.77A8,8,0,0,0,82.77,7.9m-5.45,6.68a5.56,5.56,0,0,1,10.88,0Z"/><path d="M58.4,19.82v-16h-.8a1.46,1.46,0,0,0-1.52,1.24h0V20.2q0,4.05,3.78,4.05h2V21.93H60.21c-1.21,0-1.81-.7-1.81-2.11"/><path d="M123.14,16a8.21,8.21,0,0,0,7.8,8.21h6.48V7.86h-6.48c-4.07,0-7.8,3.79-7.8,8.18m12-5.86V22h-3.79a6.15,6.15,0,0,1-5.9-5.92,6.09,6.09,0,0,1,5.9-5.86Z"/><path d="M180.34,4.55h-.91s-.06,0-.06,0l-.29,1.91s0,0,0,0h.8a.11.11,0,0,1,.12.12v.5a.11.11,0,0,1-.12.12H179s-.06,0-.06,0l-.33,2.05c0,.07,0,.11-.12.11l-.61,0a.12.12,0,0,1-.08,0s0-.06,0-.1l.3-2s0,0,0,0h-1.91s-.06,0-.06,0l-.32,2.05a.11.11,0,0,1-.12.11l-.62,0a.12.12,0,0,1-.08,0,.11.11,0,0,1,0-.1l.3-2a0,0,0,0,0,0,0h-.77a.11.11,0,0,1-.12-.12v-.5a.11.11,0,0,1,.12-.12h.88s.06,0,.06,0l.29-1.91s0,0,0,0h-.75a.11.11,0,0,1-.12-.12V3.92a.11.11,0,0,1,.12-.12h.87s.06,0,.06,0l.33-2c0-.08,0-.11.12-.11l.61,0a.09.09,0,0,1,.08,0s0,.05,0,.09l-.3,2s0,0,0,0h1.9s.06,0,.06,0l.32-2a.11.11,0,0,1,.12-.11l.61,0a.11.11,0,0,1,.09,0,.09.09,0,0,1,0,.09l-.3,2s0,0,0,0h.8a.11.11,0,0,1,.12.12v.51A.11.11,0,0,1,180.34,4.55Zm-2.11,2,.29-1.91a0,0,0,0,0,0,0h-1.91s-.06,0-.06,0l-.29,1.91a0,0,0,0,0,0,0h1.91S178.23,6.54,178.23,6.51Z"/><path d="M184.65,2.54a1.24,1.24,0,0,0-.22.86v.15s0,0,0,0h1.26a.11.11,0,0,1,.12.12v.82a.11.11,0,0,1-.12.12h-1.26a0,0,0,0,0,0,0V9.58a.11.11,0,0,1-.12.12h-.91a.11.11,0,0,1-.12-.12V4.7a0,0,0,0,0-.05,0h-.8a.11.11,0,0,1-.12-.12V3.71a.11.11,0,0,1,.12-.12h.8s.05,0,.05,0V3.33a3.11,3.11,0,0,1,.19-1.23,1.11,1.11,0,0,1,.63-.61,3.16,3.16,0,0,1,1.24-.19h.41a.11.11,0,0,1,.12.12v.77a.11.11,0,0,1-.12.12h-.29A1.1,1.1,0,0,0,184.65,2.54Zm2.67-.12a.77.77,0,0,1-.21-.55.78.78,0,0,1,.21-.56.84.84,0,0,1,1.11,0,.78.78,0,0,1,.21.56.77.77,0,0,1-.21.55.84.84,0,0,1-1.11,0Zm0,7.15V3.71a.11.11,0,0,1,.12-.12h.91a.11.11,0,0,1,.12.12V9.57a.11.11,0,0,1-.12.12h-.91A.11.11,0,0,1,187.28,9.57Z"/><path d="M194.75,3.59h.91a.11.11,0,0,1,.12.12v8.16a.11.11,0,0,1-.12.12h-.91a.11.11,0,0,1-.12-.12V9.2s0,0,0,0,0,0,0,0a1.93,1.93,0,0,1-.63.47,2,2,0,0,1-.77.16,2.41,2.41,0,0,1-1.48-.44,2.46,2.46,0,0,1-.83-1.24,5.22,5.22,0,0,1-.19-1.46,4.65,4.65,0,0,1,.23-1.53,2.48,2.48,0,0,1,.83-1.21,2.36,2.36,0,0,1,1.44-.42,1.85,1.85,0,0,1,.78.16,2,2,0,0,1,.62.47s0,0,0,0,0,0,0,0v-.4A.11.11,0,0,1,194.75,3.59Zm-.14,3.06a3.29,3.29,0,0,0-.28-1.51,1.15,1.15,0,0,0-1.05-.65,1.21,1.21,0,0,0-1.15.66,3.22,3.22,0,0,0-.29,1.49,2.78,2.78,0,0,0,.38,1.58,1.15,1.15,0,0,0,1.07.58,1.1,1.1,0,0,0,1-.61A3.13,3.13,0,0,0,194.61,6.65Z"/><path d="M201.89,3.59h.9a.11.11,0,0,1,.12.12V9.58a.11.11,0,0,1-.12.12h-.9a.11.11,0,0,1-.12-.12V9.14s0,0,0,0,0,0,0,0a1.68,1.68,0,0,1-1.47.67,2.59,2.59,0,0,1-1.09-.23,1.94,1.94,0,0,1-.8-.67,1.9,1.9,0,0,1-.3-1.08V3.71a.11.11,0,0,1,.12-.12h.9a.11.11,0,0,1,.12.12V7.45a1.4,1.4,0,0,0,.33,1,1.2,1.2,0,0,0,.93.36,1.27,1.27,0,0,0,1-.37,1.32,1.32,0,0,0,.36-1V3.71A.11.11,0,0,1,201.89,3.59Z"/><path d="M210.17,7a.11.11,0,0,1-.12.12h-3.83s0,0,0,0a2,2,0,0,0,.07.62,1.28,1.28,0,0,0,.53.75,1.8,1.8,0,0,0,1,.27,1.52,1.52,0,0,0,1.36-.73c0-.08.1-.09.16,0l.68.46c.06,0,.07.1,0,.15a2.27,2.27,0,0,1-.95.86,3.2,3.2,0,0,1-1.4.31,2.73,2.73,0,0,1-1.48-.38,2.34,2.34,0,0,1-.9-1.1A4.56,4.56,0,0,1,205,6.62a4.88,4.88,0,0,1,.14-1.33A2.26,2.26,0,0,1,206,4a2.57,2.57,0,0,1,1.57-.48,2.45,2.45,0,0,1,1.81.6,3,3,0,0,1,.74,1.79A9.48,9.48,0,0,1,210.17,7Zm-3.43-2.24a1.29,1.29,0,0,0-.46.69,2.88,2.88,0,0,0-.1.67s0,0,0,0H209a0,0,0,0,0,.05,0,4.13,4.13,0,0,0-.07-.58,1.3,1.3,0,0,0-.48-.75,1.35,1.35,0,0,0-.88-.29A1.37,1.37,0,0,0,206.74,4.75Z"/><path d="M188.09,16.49v.38A.11.11,0,0,1,188,17H184.1s0,0,0,.05a5,5,0,0,0,.07.85,1.48,1.48,0,0,0,.56.85,1.84,1.84,0,0,0,1.11.31,1.57,1.57,0,0,0,1.49-.87c.05-.07.1-.09.16-.05l.47.28a.11.11,0,0,1,.05.16,2.13,2.13,0,0,1-.9.91,2.82,2.82,0,0,1-1.38.33,2.51,2.51,0,0,1-1.43-.41,2.13,2.13,0,0,1-.82-1.1,4.81,4.81,0,0,1-.22-1.66c0-.33,0-.61,0-.82a2.43,2.43,0,0,1,.09-.57,2.2,2.2,0,0,1,.82-1.25,2.72,2.72,0,0,1,3.17.08,2.61,2.61,0,0,1,.74,1.57A6.54,6.54,0,0,1,188.09,16.49Zm-3.44-1.91a1.44,1.44,0,0,0-.51.83,4,4,0,0,0-.09.81s0,.05,0,.05h3.11s0,0,0-.05a5.06,5.06,0,0,0-.07-.77,1.54,1.54,0,0,0-.53-.86,1.61,1.61,0,0,0-1-.31A1.59,1.59,0,0,0,184.65,14.58Z"/><path d="M198,14.08a2.06,2.06,0,0,1,.52,1.48v4a.11.11,0,0,1-.12.12h-.6a.11.11,0,0,1-.12-.12V15.73a1.45,1.45,0,0,0-.37-1.05,1.35,1.35,0,0,0-1-.39,1.41,1.41,0,0,0-1,.38,1.39,1.39,0,0,0-.39,1v3.88a.11.11,0,0,1-.12.12h-.61a.11.11,0,0,1-.12-.12V15.73a1.49,1.49,0,0,0-.37-1.05,1.32,1.32,0,0,0-1-.39,1.31,1.31,0,0,0-1.39,1.41v3.88a.11.11,0,0,1-.12.12h-.61c-.08,0-.13,0-.13-.12V13.75c0-.08.05-.12.13-.12h.61a.11.11,0,0,1,.12.12v.48s0,0,0,0l0,0a1.57,1.57,0,0,1,.67-.52,2.32,2.32,0,0,1,.92-.18,2.09,2.09,0,0,1,1.07.26,1.54,1.54,0,0,1,.67.73s0,0,.06,0a1.73,1.73,0,0,1,.75-.74,2.4,2.4,0,0,1,1.09-.25A1.92,1.92,0,0,1,198,14.08Z"/><path d="M184.16,29.34a2.3,2.3,0,0,1-.89-1.26,4.8,4.8,0,0,1-.18-1.45,5.22,5.22,0,0,1,.18-1.45,2.35,2.35,0,0,1,.89-1.23,2.7,2.7,0,0,1,1.56-.45,2.76,2.76,0,0,1,1.57.45,2.05,2.05,0,0,1,.87,1.16,1.72,1.72,0,0,1,.1.39.11.11,0,0,1-.11.12l-.9.13h0a.12.12,0,0,1-.12-.1l0-.2a1.14,1.14,0,0,0-.47-.68,1.46,1.46,0,0,0-.9-.28,1.41,1.41,0,0,0-.87.28,1.25,1.25,0,0,0-.47.73,5,5,0,0,0-.11,1.14,4.89,4.89,0,0,0,.11,1.13,1.39,1.39,0,0,0,.47.76,1.41,1.41,0,0,0,.87.27,1.51,1.51,0,0,0,.91-.27,1.19,1.19,0,0,0,.47-.72,0,0,0,0,0,0,0s0,0,0,0V27.7a.09.09,0,0,1,.13-.07l.9.14c.06,0,.09.05.09.1v0a.78.78,0,0,1-.06.27,2,2,0,0,1-.87,1.17,2.76,2.76,0,0,1-1.57.45A2.66,2.66,0,0,1,184.16,29.34Z"/><path d="M193.69,23.76a2,2,0,0,1,.84.72,1.92,1.92,0,0,1,.29,1.05v4a.11.11,0,0,1-.12.12h-.91a.11.11,0,0,1-.12-.12v-.43s0,0-.06,0a2.08,2.08,0,0,1-.76.49,2.66,2.66,0,0,1-1,.18,2.32,2.32,0,0,1-1.47-.45A1.61,1.61,0,0,1,189.8,28a1.76,1.76,0,0,1,.65-1.47,2.79,2.79,0,0,1,1.83-.54h1.34s0,0,0-.05v-.32a1.09,1.09,0,0,0-.3-.82,1.31,1.31,0,0,0-.94-.3,1.58,1.58,0,0,0-.82.2.82.82,0,0,0-.39.54.12.12,0,0,1-.14.1l-1-.13c-.08,0-.12-.05-.11-.09a1.59,1.59,0,0,1,.76-1.16,3.26,3.26,0,0,1,2.93-.19Zm-.49,4.73a1,1,0,0,0,.47-.85v-.71a0,0,0,0,0,0-.05H192.5a2,2,0,0,0-1.13.28.87.87,0,0,0-.42.77.77.77,0,0,0,.31.67,1.46,1.46,0,0,0,.84.23A1.87,1.87,0,0,0,193.2,28.49Z"/><path d="M197.87,29.56A2,2,0,0,1,197,29a1.3,1.3,0,0,1-.3-.83V28a.11.11,0,0,1,.12-.12h.86a.11.11,0,0,1,.12.12v.06a.74.74,0,0,0,.37.59,1.65,1.65,0,0,0,.93.25,1.5,1.5,0,0,0,.88-.24.69.69,0,0,0,.33-.59.55.55,0,0,0-.31-.52,4.69,4.69,0,0,0-1-.37,9.9,9.9,0,0,1-1.14-.39,2.11,2.11,0,0,1-.78-.56,1.36,1.36,0,0,1-.32-.94A1.51,1.51,0,0,1,197.4,24a2.69,2.69,0,0,1,1.67-.48,3.1,3.1,0,0,1,1.23.23,1.79,1.79,0,0,1,.82.61,1.44,1.44,0,0,1,.29.89v0a.11.11,0,0,1-.12.12h-.84a.11.11,0,0,1-.12-.12v0a.69.69,0,0,0-.34-.58,2,2,0,0,0-1.79,0,.63.63,0,0,0-.33.55.58.58,0,0,0,.32.53,4.65,4.65,0,0,0,1,.38,11.91,11.91,0,0,1,1.15.38,2.21,2.21,0,0,1,.79.55,1.39,1.39,0,0,1,.32,1,1.52,1.52,0,0,1-.64,1.29,2.8,2.8,0,0,1-1.71.48A3.47,3.47,0,0,1,197.87,29.56Z"/><path d="M206.94,23.76a2,2,0,0,1,.84.72,1.92,1.92,0,0,1,.29,1.05v4a.11.11,0,0,1-.12.12H207a.11.11,0,0,1-.12-.12v-.43s0,0-.06,0a2.08,2.08,0,0,1-.76.49,2.71,2.71,0,0,1-1,.18,2.29,2.29,0,0,1-1.46-.45A1.62,1.62,0,0,1,203,28a1.77,1.77,0,0,1,.66-1.47,2.77,2.77,0,0,1,1.83-.54h1.34s0,0,0-.05v-.32a1.06,1.06,0,0,0-.31-.82,1.27,1.27,0,0,0-.93-.3,1.56,1.56,0,0,0-.82.2.82.82,0,0,0-.39.54.12.12,0,0,1-.14.1l-1-.13c-.08,0-.11-.05-.1-.09A1.6,1.6,0,0,1,204,24a3.28,3.28,0,0,1,2.94-.19Zm-.49,4.73a1,1,0,0,0,.47-.85v-.71a0,0,0,0,0,0-.05h-1.13a1.93,1.93,0,0,0-1.12.28.87.87,0,0,0-.42.77.77.77,0,0,0,.31.67,1.42,1.42,0,0,0,.84.23A1.87,1.87,0,0,0,206.45,28.49Z"/></svg>
-->
<svg xmlns="http://www.w3.org/2000/svg" viewBox="0 0 211.55 48.65"><defs><style>.cls-1{fill:none;stroke:#0283c2;stroke-linecap:round;stroke-linejoin:round;stroke-width:2.75px;}</style></defs><g id="Layer_2" data-name="Layer 2"><g id="Layer_1-2" data-name="Layer 1"><path d="M181.72,16.93h-1l-.29,1.91h.8a.11.11,0,0,1,.12.1v.52a.12.12,0,0,1-.1.12h-1L180,21.63c0,.07,0,.11-.12.11h-.61a.11.11,0,0,1-.08,0v-.1l.3-2h-2l-.32,2.05a.11.11,0,0,1-.11.11h-.71a.09.09,0,0,1,0-.1l.3-2h-.77a.11.11,0,0,1-.12-.1v-.52a.11.11,0,0,1,.1-.12h1l.29-1.91h-.75a.11.11,0,0,1-.12-.1V16.3a.11.11,0,0,1,.1-.12h.95l.33-2c0-.08,0-.11.12-.11h.61a.06.06,0,0,1,.08,0v.09l-.3,2h2l.32-2a.11.11,0,0,1,.11-.11h.62a.08.08,0,0,1,.09,0,.14.14,0,0,1,0,.09l-.3,2h.8a.11.11,0,0,1,.12.1v.53a.11.11,0,0,1,0,.15A.11.11,0,0,1,181.72,16.93Zm-2.11,2L179.9,17h-2l-.29,1.91h1.91s.06,0,.06,0Z"/><path d="M186,14.92a1.19,1.19,0,0,0-.22.86v.15h1.26a.11.11,0,0,1,.12.1v.84a.12.12,0,0,1-.1.12h-1.28v5a.12.12,0,0,1-.1.12h-.93a.11.11,0,0,1-.12-.1v-4.9m0,0h-.8a.11.11,0,0,1-.12-.1v-.89a.11.11,0,0,1,.1-.12h.87v-.26a3,3,0,0,1,.19-1.23,1.08,1.08,0,0,1,.63-.61,3.07,3.07,0,0,1,1.24-.19h.41a.11.11,0,0,1,.12.1v.79a.12.12,0,0,1-.1.12h-.31a1.08,1.08,0,0,0-.81.23Zm4.09-2.28a.84.84,0,0,1,0-1.11.84.84,0,0,1,1.11,0,.84.84,0,0,1,0,1.11A.84.84,0,0,1,188.7,14.8Zm0,7.15V16.09a.11.11,0,0,1,.1-.12h.93a.11.11,0,0,1,.12.1V22a.12.12,0,0,1-.1.12h-.93a.11.11,0,0,1-.15-.05.09.09,0,0,1,0-.07Z"/><path d="M196.13,16H197a.11.11,0,0,1,.12.1v8.18a.12.12,0,0,1-.1.12h-.93a.11.11,0,0,1-.12-.1V21.58h0a1.93,1.93,0,0,1-.63.47,2.08,2.08,0,0,1-.77.16,2.24,2.24,0,0,1-2.31-1.68,5.18,5.18,0,0,1-.19-1.46,4.66,4.66,0,0,1,.23-1.53,2.43,2.43,0,0,1,.83-1.21,2.3,2.3,0,0,1,1.44-.42,1.76,1.76,0,0,1,.78.16,2,2,0,0,1,.62.47h0v-.4a.11.11,0,0,1,0-.16A.11.11,0,0,1,196.13,16ZM196,19a3.39,3.39,0,0,0-.28-1.51,1.16,1.16,0,0,0-1.05-.65,1.21,1.21,0,0,0-1.15.66,3,3,0,0,0-.29,1.49,2.75,2.75,0,0,0,.38,1.58,1.16,1.16,0,0,0,1.07.58,1.11,1.11,0,0,0,1-.61A3.28,3.28,0,0,0,196,19Z"/><path d="M203.27,16h.9a.11.11,0,0,1,.12.1V22a.12.12,0,0,1-.1.12h-.92a.11.11,0,0,1-.12-.1v-.46h0a1.7,1.7,0,0,1-1.47.67,2.7,2.7,0,0,1-1.09-.23,1.94,1.94,0,0,1-.8-.67,1.88,1.88,0,0,1-.3-1.08V16.09a.11.11,0,0,1,.1-.12h.92a.11.11,0,0,1,.12.1v3.76a1.37,1.37,0,0,0,.33,1,1.19,1.19,0,0,0,.93.36,1.29,1.29,0,0,0,1-.37,1.36,1.36,0,0,0,.36-1V16.09A.11.11,0,0,1,203.27,16Z"/><path d="M211.55,19.38a.12.12,0,0,1-.1.12H207.6a1.85,1.85,0,0,0,.07.62,1.29,1.29,0,0,0,.53.75,1.83,1.83,0,0,0,1,.27,1.54,1.54,0,0,0,1.36-.73c0-.08.1-.09.16,0l.68.46c.06,0,.07.1,0,.15a2.32,2.32,0,0,1-1,.86,3.25,3.25,0,0,1-1.4.31,2.82,2.82,0,0,1-1.48-.38,2.36,2.36,0,0,1-.9-1.1,4.37,4.37,0,0,1-.29-1.71,4.56,4.56,0,0,1,.14-1.33,2.21,2.21,0,0,1,.86-1.29A2.52,2.52,0,0,1,209,15.9a2.41,2.41,0,0,1,1.81.6,3,3,0,0,1,.74,1.79C211.53,18.65,211.55,19,211.55,19.38Zm-3.43-2.24a1.22,1.22,0,0,0-.46.69,2.53,2.53,0,0,0-.1.67h2.82m.05,0a5.41,5.41,0,0,0-.07-.58,1.31,1.31,0,0,0-.48-.75,1.33,1.33,0,0,0-.88-.29,1.36,1.36,0,0,0-.88.25Z"/><path d="M189.47,28.87v.38a.12.12,0,0,1-.09.13h-3.9v.05a4.88,4.88,0,0,0,.07.85,1.49,1.49,0,0,0,.56.85,1.8,1.8,0,0,0,1.11.31,1.58,1.58,0,0,0,1.49-.87c0-.07.1-.09.16-.05l.47.28a.12.12,0,0,1,.06.14v0a2.19,2.19,0,0,1-.9.91,2.9,2.9,0,0,1-1.38.33,2.49,2.49,0,0,1-1.43-.41,2.13,2.13,0,0,1-.82-1.1,4.69,4.69,0,0,1-.22-1.66v-.82a1.79,1.79,0,0,1,.09-.57,2.21,2.21,0,0,1,.82-1.25,2.7,2.7,0,0,1,3.17.08,2.57,2.57,0,0,1,.74,1.57A7.63,7.63,0,0,1,189.47,28.87ZM186,27a1.45,1.45,0,0,0-.51.83,3.66,3.66,0,0,0-.09.81v0h3.11v0a6.48,6.48,0,0,0-.07-.77,1.56,1.56,0,0,0-.53-.86,1.63,1.63,0,0,0-1-.31A1.55,1.55,0,0,0,186,27Z"/><path d="M199.38,26.46a2,2,0,0,1,.52,1.48v4a.12.12,0,0,1-.1.12h-.62a.11.11,0,0,1-.12-.1V28.11a1.43,1.43,0,0,0-.37-1.05,1.31,1.31,0,0,0-1-.39,1.32,1.32,0,0,0-1.39,1.38v3.88a.12.12,0,0,1-.1.12h-.63a.11.11,0,0,1-.12-.1V28.11a1.54,1.54,0,0,0-.37-1.05,1.43,1.43,0,0,0-2.39.83.61.61,0,0,0,0,.19V32a.12.12,0,0,1-.1.12H192c-.08,0-.13,0-.13-.12V26.13c0-.08,0-.12.13-.12h.61a.11.11,0,0,1,.12.1v.5h0a1.57,1.57,0,0,1,.67-.52,2.22,2.22,0,0,1,.92-.18,2.12,2.12,0,0,1,1.07.26,1.53,1.53,0,0,1,.67.73h.06a1.68,1.68,0,0,1,.75-.74,2.3,2.3,0,0,1,1.09-.25A1.94,1.94,0,0,1,199.38,26.46Z"/><path d="M185.54,41.72a2.27,2.27,0,0,1-.89-1.26,4.44,4.44,0,0,1-.18-1.45,5.06,5.06,0,0,1,.18-1.45,2.3,2.3,0,0,1,.89-1.23,2.61,2.61,0,0,1,1.56-.45,2.76,2.76,0,0,1,1.57.45,2.07,2.07,0,0,1,.87,1.16,1.59,1.59,0,0,1,.1.39.12.12,0,0,1-.1.12h0l-.9.13h0a.12.12,0,0,1-.12-.1v-.2a1.18,1.18,0,0,0-.47-.68,1.46,1.46,0,0,0-.9-.28,1.35,1.35,0,0,0-.87.28,1.23,1.23,0,0,0-.47.73,5.91,5.91,0,0,0,0,2.27,1.39,1.39,0,0,0,.47.76,1.43,1.43,0,0,0,.87.27,1.57,1.57,0,0,0,.91-.27,1.21,1.21,0,0,0,.47-.72h0v-.11a.08.08,0,0,1,.1-.08h0l.9.14a.09.09,0,0,1,.09.1h0a1.31,1.31,0,0,1-.06.27,2.09,2.09,0,0,1-.87,1.17,2.84,2.84,0,0,1-1.57.45A2.71,2.71,0,0,1,185.54,41.72Z"/><path d="M195.07,36.14a2,2,0,0,1,.84.72,2,2,0,0,1,.29,1v4a.12.12,0,0,1-.1.12h-.93a.11.11,0,0,1-.12-.1v-.45H195a2.36,2.36,0,0,1-.76.49,2.85,2.85,0,0,1-1,.18,2.33,2.33,0,0,1-1.47-.45,1.61,1.61,0,0,1-.58-1.32,1.73,1.73,0,0,1,.65-1.47,2.77,2.77,0,0,1,1.83-.54H195V38a1.08,1.08,0,0,0-.3-.82,1.29,1.29,0,0,0-.94-.3,1.56,1.56,0,0,0-.82.2.81.81,0,0,0-.39.54.12.12,0,0,1-.14.1h0l-1-.13c-.08,0-.12-.05-.11-.09a1.56,1.56,0,0,1,.76-1.16,3.23,3.23,0,0,1,2.93-.19Zm-.49,4.73a1,1,0,0,0,.47-.85v-.71m0-.05h-1.17a2,2,0,0,0-1.13.28.86.86,0,0,0-.42.77.77.77,0,0,0,.31.67,1.46,1.46,0,0,0,.84.23,2,2,0,0,0,1.1-.34Z"/><path d="M199.25,41.94a2,2,0,0,1-.87-.56,1.28,1.28,0,0,1-.3-.83v-.17a.11.11,0,0,1,.1-.12h.88a.11.11,0,0,1,.12.1v.08a.73.73,0,0,0,.37.59,1.69,1.69,0,0,0,.93.25,1.52,1.52,0,0,0,.88-.24.71.71,0,0,0,.33-.59.54.54,0,0,0-.31-.52,4.64,4.64,0,0,0-1-.37,10.93,10.93,0,0,1-1.14-.39,2.19,2.19,0,0,1-.78-.56,1.35,1.35,0,0,1-.32-.94,1.5,1.5,0,0,1,.64-1.29,2.68,2.68,0,0,1,1.67-.48,3.06,3.06,0,0,1,1.23.23,1.83,1.83,0,0,1,.82.61,1.48,1.48,0,0,1,.29.89h0a.12.12,0,0,1-.1.12h-.86a.11.11,0,0,1-.12-.1v0h0a.71.71,0,0,0-.34-.58,2,2,0,0,0-1.79,0,.63.63,0,0,0-.33.55.57.57,0,0,0,.32.53,4.8,4.8,0,0,0,1,.38,9.67,9.67,0,0,1,1.15.38,2.17,2.17,0,0,1,.79.55,1.4,1.4,0,0,1,.32,1,1.56,1.56,0,0,1-.64,1.29,2.83,2.83,0,0,1-1.71.48A3.66,3.66,0,0,1,199.25,41.94Z"/><path d="M208.32,36.14a2,2,0,0,1,.84.72,2,2,0,0,1,.29,1v4a.12.12,0,0,1-.1.12h-1a.11.11,0,0,1-.12-.1v-.45h-.06a2.36,2.36,0,0,1-.76.49,2.85,2.85,0,0,1-1,.18A2.3,2.3,0,0,1,205,41.7a1.61,1.61,0,0,1-.6-1.32,1.74,1.74,0,0,1,.66-1.47,2.72,2.72,0,0,1,1.83-.54h1.34V38a1.07,1.07,0,0,0-.31-.82,1.28,1.28,0,0,0-.93-.3,1.56,1.56,0,0,0-.82.2.81.81,0,0,0-.39.54.12.12,0,0,1-.14.1h0l-1-.13c-.08,0-.11-.05-.1-.09a1.56,1.56,0,0,1,.86-1.12,3.25,3.25,0,0,1,2.94-.19Zm-.49,4.73a1,1,0,0,0,.47-.85v-.71m0-.05h-1.13a1.83,1.83,0,0,0-1.12.28.86.86,0,0,0-.42.77.77.77,0,0,0,.31.67,1.46,1.46,0,0,0,.84.23,2,2,0,0,0,1.05-.34Z"/><path d="M82.28,33.48v-7.9h3.6v-2h-3.6v-3.5h-.5a1.27,1.27,0,0,0-1.4,1.2h0V34c0,2.6,1.2,3.9,3.5,3.9h1.4v-2H84c-1.1-.1-1.7-1.1-1.7-2.4M148,20.08h-.5a1.43,1.43,0,0,0-1.5,1.2h0V34q0,3.9,3.6,3.9H151v-2h-1.3c-1.2,0-1.7-1-1.7-2.4v-7.9h3.7v-2H148v-3.5Zm-36.5,3.5h-2.6q-3.6,0-3.6,3.9v10.3h2V27.48c0-1.3.6-2,1.7-2h2.5v-1.9Zm12.9-2.3v2.3h-3.7a7.1,7.1,0,0,0,0,14.2h5.8V20.08H126c-.9,0-1.6.5-1.6,1.2m0,14.5H121a5.37,5.37,0,0,1-5.3-5.1,5.37,5.37,0,0,1,5.3-5.1h3.4Zm36.3-12.3a7.14,7.14,0,0,0-6.8,7.1,7.23,7.23,0,0,0,6.8,7.2h5.6V23.48Zm3.7,12.3h-3.3a5.44,5.44,0,0,1-5.2-5.2,5.35,5.35,0,0,1,5.2-5.1h3.3ZM62.68,23.48a7.14,7.14,0,0,0-6.8,7.1,7.23,7.23,0,0,0,6.8,7.2h5.6V23.48Zm3.7,12.3H63a5.44,5.44,0,0,1-5.2-5.2,5.35,5.35,0,0,1,5.2-5.1h3.3v10.3ZM95,23.58a6.92,6.92,0,0,0-6.7,7.1,6.92,6.92,0,0,0,6.7,7.1h5v-2H95a5,5,0,0,1-4.8-4.5h11.6v-.7a7,7,0,0,0-6.8-7m-4.8,5.8a4.9,4.9,0,0,1,4.7-3.8,4.82,4.82,0,0,1,4.7,3.8Zm-16.4,4.5V20.08h-.7a1.23,1.23,0,0,0-1.3,1.1h0v13.1c0,2.3,1.1,3.5,3.3,3.5h1.7v-2h-1.4c-1.1,0-1.6-.6-1.6-1.9m56.2-3.2a7.14,7.14,0,0,0,6.8,7.1h5.6V23.58h-5.6a7.14,7.14,0,0,0-6.8,7.1m10.4-5.1v10.2h-3.3a5.33,5.33,0,0,1-5.1-5.1,5.26,5.26,0,0,1,5.1-5.1Z"/><path d="M28.78,16.28h10.9a1.11,1.11,0,0,1,1.1,1.1v10.9a1,1,0,0,1-1.1,1A.91.91,0,0,1,39,29l-3.7-3.7-3.6,3.6,8.3,8.3a2.34,2.34,0,0,1,.7,1.7V39a2.48,2.48,0,0,1-2.5,2.5h-.1a2.41,2.41,0,0,1-1.7-.7l-8.3-8.3-8.3,8.3a2.41,2.41,0,0,1-1.8.7h0a2.48,2.48,0,0,1-2.5-2.5V18.88a2.48,2.48,0,0,1,2.5-2.5,2.87,2.87,0,0,1,1.8.7l8.3,8.3,3.6-3.6L28,18.08a1.09,1.09,0,0,1,.8-1.8m-8.1,16.6,4-4-4-4v8m8.1-17.8h0a2.31,2.31,0,0,0-2.1,1.4,2.15,2.15,0,0,0,.5,2.5l2.8,2.8-1.8,1.8-7.4-7.4a3.86,3.86,0,0,0-2.7-1.1,3.8,3.8,0,0,0-3.8,3.8V39a3.8,3.8,0,0,0,3.8,3.8,3.86,3.86,0,0,0,2.7-1.1l7.4-7.4,7.4,7.4a3.63,3.63,0,0,0,2.6,1.1h.1a3.69,3.69,0,0,0,3.7-3.7V39a3.63,3.63,0,0,0-1.1-2.6L33.48,29l1.8-1.8,2.8,2.8a2.36,2.36,0,0,0,1.6.7,2.26,2.26,0,0,0,2.3-2.3v-11a2.26,2.26,0,0,0-2.3-2.3Zm-6.9,14.8V28l.9.9Z"/><path class="cls-1" d="M48.48,23.08V44a3.31,3.31,0,0,1-3.2,3.3h-34A3.21,3.21,0,0,1,8,44V23.08"/><polyline class="cls-1" points="1.38 19.48 28.18 1.38 54.98 19.48"/></g></g></svg>
